<svg width="142" height="290" viewBox="0 0 142 290" fill="none" xmlns="http://www.w3.org/2000/svg">
<path d="M9.20508 1.25V0H7.95508V1.25H9.20508ZM8.32119 289.634C8.80935 290.122 9.60081 290.122 10.089 289.634L18.0439 281.679C18.5321 281.191 18.5321 280.399 18.0439 279.911C17.5558 279.423 16.7643 279.423 16.2761 279.911L9.20508 286.982L2.13401 279.911C1.64585 279.423 0.854399 279.423 0.366243 279.911C-0.121912 280.399 -0.121912 281.191 0.366243 281.679L8.32119 289.634ZM141.205 1.25V0H9.20508V1.25V2.5H141.205V1.25ZM9.20508 1.25H7.95508V288.75H9.20508H10.4551V1.25H9.20508Z" fill="white"/>
</svg>
